<?xml version="1.0" encoding="utf-8"?>
<!-- Generator: Adobe Illustrator 16.0.0, SVG Export Plug-In . SVG Version: 6.00 Build 0)  -->
<!DOCTYPE svg PUBLIC "-//W3C//DTD SVG 1.1//EN" "http://www.w3.org/Graphics/SVG/1.1/DTD/svg11.dtd">
<svg version="1.1" id="Layer_1" xmlns:xodm="http://www.corel.com/coreldraw/odm/2003"
	 xmlns="http://www.w3.org/2000/svg" xmlns:xlink="http://www.w3.org/1999/xlink" x="0px" y="0px" width="242.193px"
	 height="64.167px" viewBox="0 0 242.193 64.167" enable-background="new 0 0 242.193 64.167" xml:space="preserve">
<g id="Camada_x0020_1">
	<g id="_2116295922640">
		<g>
			<g>
				<path fill="#FFFFFF" d="M215.914,10.845c-1.283,0-2.323-1.04-2.323-2.322s1.04-2.323,2.323-2.323
					c4.58,0,8.726,1.857,11.729,4.859s4.859,7.149,4.859,11.729c0,4.58-1.857,8.727-4.859,11.729s-7.149,4.858-11.729,4.858
					c-4.581,0-8.727-1.856-11.729-4.858s-4.857-7.149-4.857-11.729c0-1.283,1.04-2.323,2.323-2.323c1.283,0,2.323,1.04,2.323,2.323
					c0,3.298,1.337,6.283,3.497,8.444c2.161,2.161,5.146,3.497,8.443,3.497c3.298,0,6.284-1.337,8.445-3.498
					c2.161-2.161,3.498-5.146,3.498-8.444c0-3.296-1.337-6.283-3.498-8.443c-2.161-2.161-5.147-3.498-8.445-3.498H215.914z"/>
				<path fill="#FFFFFF" d="M215.914,34.728c1.282,0,2.322,1.041,2.322,2.323c0,1.283-1.04,2.322-2.322,2.322
					c-4.581,0-8.727-1.856-11.729-4.858s-4.857-7.149-4.857-11.729c0-4.58,1.857-8.727,4.859-11.729
					c3-3.001,7.147-4.859,11.729-4.859c4.58,0,8.727,1.856,11.729,4.859c3.001,3.002,4.858,7.149,4.858,11.729
					c0,1.283-1.041,2.323-2.323,2.323c-1.283,0-2.323-1.04-2.323-2.323c0-3.297-1.336-6.283-3.498-8.443
					c-2.16-2.161-5.146-3.498-8.444-3.498c-3.298,0-6.284,1.336-8.443,3.498c-2.161,2.161-3.498,5.146-3.498,8.443
					c0,3.298,1.337,6.284,3.497,8.444c2.161,2.161,5.146,3.497,8.443,3.497V34.728z"/>
				<path fill="#FFFFFF" d="M183.793,12.829l5.124-5.558l0.142-0.146c1.257-1.209,3.255-1.244,4.554-0.045
					c1.071,0.988,1.03,1.774,1.021,3.072l-0.103,15.667l-0.054,8.441l0.021,2.734c0.004,1.313-1.133,2.365-2.424,2.381
					c-1.31,0.018-2.388-1.031-2.404-2.344l0.036-2.771l0.021-3.229l0.117-17.725l-2.544,2.759c-0.891,0.949-2.381,1.004-3.339,0.121
					c-0.964-0.889-1.025-2.39-0.136-3.354L183.793,12.829L183.793,12.829z"/>
			</g>
			<path fill="#FFFFFF" d="M6.048,53.522c0.202,0.203,0.468,0.388,0.793,0.554c0.327,0.167,0.686,0.251,1.077,0.251
				c0.094,0,0.192-0.008,0.293-0.028c0.102-0.018,0.193-0.048,0.272-0.092s0.145-0.102,0.195-0.174
				c0.051-0.073,0.076-0.167,0.076-0.283c0-0.188-0.096-0.345-0.288-0.469c-0.193-0.124-0.474-0.246-0.844-0.37L7.22,52.781
				c-0.225-0.073-0.451-0.167-0.68-0.284c-0.228-0.115-0.434-0.255-0.615-0.418c-0.182-0.163-0.329-0.354-0.441-0.577
				c-0.112-0.221-0.168-0.481-0.168-0.778c0-0.334,0.061-0.643,0.185-0.929c0.123-0.287,0.303-0.537,0.539-0.75
				c0.236-0.214,0.527-0.381,0.876-0.501c0.348-0.12,0.75-0.179,1.208-0.179c0.355,0,0.679,0.031,0.968,0.097
				c0.291,0.066,0.544,0.145,0.762,0.24c0.218,0.094,0.403,0.196,0.555,0.304c0.152,0.109,0.269,0.207,0.348,0.293l-0.979,1.241
				c-0.254-0.188-0.519-0.343-0.794-0.463c-0.276-0.119-0.558-0.179-0.849-0.179c-0.094,0-0.188,0.011-0.283,0.032
				c-0.094,0.023-0.18,0.055-0.255,0.099c-0.076,0.044-0.138,0.099-0.186,0.168c-0.047,0.069-0.071,0.155-0.071,0.256
				c0,0.109,0.027,0.203,0.082,0.284c0.054,0.08,0.129,0.148,0.223,0.207c0.094,0.058,0.208,0.11,0.342,0.157
				c0.134,0.047,0.278,0.096,0.43,0.146l0.348,0.109c0.246,0.081,0.497,0.172,0.75,0.277c0.254,0.105,0.481,0.247,0.686,0.425
				c0.203,0.177,0.37,0.398,0.5,0.663c0.131,0.265,0.195,0.591,0.195,0.974c0,0.334-0.078,0.641-0.233,0.924
				c-0.157,0.283-0.367,0.527-0.631,0.729c-0.264,0.203-0.577,0.36-0.935,0.474c-0.36,0.112-0.742,0.168-1.148,0.168
				c-0.725,0-1.333-0.096-1.822-0.288c-0.489-0.192-0.904-0.451-1.246-0.778l1.165-1.403L6.048,53.522z M21.93,48.562h1.838
				l1.762,3.166l1.73-3.166h1.85l0.337,7.256h-1.948l-0.174-4.254l-1.272,2.48h-1.056l-1.414-2.48l-0.141,4.254h-1.85L21.93,48.562z
				 M42.566,48.562h2.208l2.567,7.256h-2.078l-0.468-1.502h-2.426l-0.479,1.502H39.9l2.665-7.256H42.566z M44.404,52.914
				l-0.805-2.666l-0.838,2.666H44.404L44.404,52.914z M57.947,48.562h3.002c0.392,0,0.745,0.051,1.061,0.152
				c0.316,0.101,0.585,0.252,0.81,0.451c0.225,0.2,0.398,0.448,0.522,0.745c0.124,0.297,0.185,0.642,0.185,1.034
				c0,0.479-0.105,0.894-0.315,1.246c-0.211,0.352-0.49,0.633-0.838,0.843l1.555,2.786h-2.067l-1.229-2.471h-0.806v2.471h-1.882
				L57.947,48.562L57.947,48.562z M60.765,51.836c0.253,0,0.46-0.078,0.62-0.234c0.159-0.156,0.239-0.365,0.239-0.626
				c0-0.275-0.076-0.493-0.229-0.652c-0.152-0.16-0.367-0.239-0.642-0.239h-0.925v1.751L60.765,51.836L60.765,51.836z
				 M76.201,50.248h-2.229v-1.686h6.386v1.686h-2.208v5.57h-1.948V50.248z M98.546,48.562h2.784c0.558,0,1.075,0.073,1.55,0.217
				c0.476,0.145,0.887,0.368,1.234,0.665c0.348,0.296,0.621,0.678,0.816,1.143c0.196,0.463,0.294,1.011,0.294,1.642
				c0,0.603-0.1,1.126-0.299,1.573c-0.2,0.446-0.474,0.82-0.821,1.12c-0.348,0.301-0.762,0.526-1.239,0.674
				c-0.479,0.149-0.993,0.224-1.545,0.224h-2.774L98.546,48.562L98.546,48.562z M101.254,54.12c0.631,0,1.119-0.179,1.463-0.539
				c0.345-0.358,0.517-0.825,0.517-1.398c0-0.29-0.04-0.552-0.12-0.788s-0.201-0.439-0.365-0.609
				c-0.163-0.171-0.368-0.305-0.615-0.398c-0.247-0.094-0.54-0.142-0.881-0.142h-0.783v3.873L101.254,54.12L101.254,54.12z
				 M117.777,48.562h2.209l2.567,7.256h-2.078l-0.468-1.502h-2.427l-0.479,1.502h-1.991L117.777,48.562L117.777,48.562z
				 M119.616,52.914l-0.805-2.666l-0.838,2.666H119.616L119.616,52.914z M133.758,50.248h-2.229v-1.686h6.386v1.686h-2.208v5.57
				h-1.948V50.248z M149.553,48.562h2.209l2.566,7.256h-2.078l-0.467-1.502h-2.427l-0.479,1.502h-1.991L149.553,48.562
				L149.553,48.562z M151.392,52.914l-0.805-2.666l-0.838,2.666H151.392L151.392,52.914z"/>
			<path fill="#FFFFFF" d="M186.4,53.188l-2.578-4.363h2.209l1.414,2.589l1.327-2.589h2.144l-2.589,4.352v2.905h-1.926L186.4,53.188
				L186.4,53.188L186.4,53.188z M195.436,48.825h5.221v1.665h-3.295v1.12h2.708v1.566h-2.708v1.24h3.524v1.665h-5.45V48.825
				L195.436,48.825z M207.768,48.825h2.209l2.566,7.256h-2.077l-0.468-1.501h-2.426l-0.479,1.501h-1.991L207.768,48.825
				L207.768,48.825z M209.607,53.177l-0.805-2.665l-0.838,2.665h1.642H209.607z M217.066,48.825h3.002
				c0.392,0,0.745,0.051,1.061,0.153c0.315,0.102,0.586,0.252,0.811,0.452c0.225,0.199,0.397,0.448,0.521,0.744
				c0.125,0.296,0.186,0.641,0.186,1.034c0,0.479-0.105,0.894-0.316,1.246s-0.489,0.633-0.838,0.844l1.555,2.785h-2.066l-1.229-2.47
				h-0.805v2.47h-1.882v-7.256H217.066z M219.882,52.101c0.254,0,0.46-0.078,0.621-0.233c0.159-0.157,0.239-0.365,0.239-0.625
				c0-0.276-0.076-0.494-0.229-0.653c-0.152-0.16-0.367-0.239-0.641-0.239h-0.925v1.752L219.882,52.101L219.882,52.101z
				 M228.049,53.787c0.203,0.203,0.467,0.388,0.793,0.555c0.326,0.167,0.686,0.25,1.077,0.25c0.094,0,0.193-0.009,0.293-0.027
				c0.102-0.018,0.193-0.049,0.272-0.092c0.079-0.044,0.145-0.102,0.196-0.174c0.051-0.074,0.076-0.167,0.076-0.284
				c0-0.188-0.096-0.344-0.289-0.469c-0.192-0.123-0.474-0.246-0.843-0.369l-0.403-0.131c-0.225-0.073-0.451-0.167-0.679-0.284
				c-0.229-0.116-0.433-0.255-0.615-0.418c-0.182-0.162-0.328-0.354-0.44-0.577c-0.113-0.221-0.17-0.48-0.17-0.778
				c0-0.334,0.061-0.644,0.185-0.93c0.124-0.286,0.303-0.537,0.539-0.75c0.235-0.214,0.527-0.381,0.876-0.501
				c0.348-0.12,0.75-0.179,1.207-0.179c0.355,0,0.679,0.032,0.969,0.097c0.29,0.067,0.544,0.146,0.762,0.241
				c0.217,0.094,0.402,0.195,0.555,0.304s0.269,0.208,0.348,0.293l-0.98,1.241c-0.253-0.188-0.519-0.342-0.794-0.463
				c-0.275-0.119-0.558-0.179-0.848-0.179c-0.093,0-0.188,0.01-0.283,0.033c-0.094,0.022-0.18,0.053-0.256,0.097
				c-0.076,0.044-0.137,0.1-0.185,0.17c-0.048,0.068-0.072,0.155-0.072,0.255c0,0.109,0.028,0.203,0.082,0.284
				c0.054,0.08,0.128,0.149,0.223,0.207c0.095,0.058,0.208,0.112,0.342,0.157c0.135,0.048,0.278,0.096,0.431,0.148l0.348,0.108
				c0.246,0.081,0.497,0.172,0.75,0.277c0.253,0.106,0.482,0.247,0.686,0.425c0.203,0.178,0.37,0.398,0.501,0.663
				c0.131,0.265,0.195,0.59,0.195,0.974c0,0.334-0.078,0.642-0.233,0.925c-0.157,0.283-0.367,0.526-0.631,0.729
				c-0.264,0.202-0.578,0.36-0.936,0.473c-0.359,0.112-0.742,0.169-1.147,0.169c-0.726,0-1.333-0.095-1.823-0.289
				c-0.488-0.192-0.904-0.451-1.245-0.777l1.164-1.404L228.049,53.787z"/>
			<g>
				<path fill="#FFFFFF" d="M98.031,34.795c1.286,0,2.328,1.043,2.328,2.328c0,1.286-1.042,2.328-2.328,2.328
					c-4.591,0-8.748-1.861-11.756-4.87c-3.009-3.008-4.87-7.166-4.87-11.757c0-4.591,1.861-8.748,4.87-11.756
					c3.008-3.008,7.166-4.869,11.756-4.869c4.592,0,8.748,1.861,11.758,4.869c3.008,3.008,4.869,7.165,4.869,11.756
					c0,1.286-1.043,2.328-2.328,2.328c-1.286,0-2.328-1.043-2.328-2.328c0-3.305-1.34-6.298-3.505-8.464
					c-2.167-2.166-5.159-3.505-8.464-3.505c-3.306,0-6.298,1.34-8.465,3.505c-2.166,2.166-3.505,5.158-3.505,8.463
					c0,3.306,1.34,6.298,3.505,8.465c2.167,2.167,5.158,3.505,8.463,3.505L98.031,34.795L98.031,34.795z"/>
				<path fill="#FFFFFF" d="M98.031,10.855c-1.286,0-2.328-1.042-2.328-2.328s1.043-2.328,2.328-2.328
					c4.592,0,8.748,1.861,11.758,4.87c3.008,3.008,4.869,7.165,4.869,11.756c0,4.59-1.861,8.748-4.87,11.758
					c-3.009,3.008-7.166,4.87-11.757,4.87s-8.748-1.861-11.756-4.87c-3.009-3.011-4.87-7.167-4.87-11.758
					c0-1.286,1.043-2.328,2.328-2.328c1.286,0,2.328,1.043,2.328,2.328c0,3.305,1.34,6.298,3.505,8.464
					c2.167,2.167,5.158,3.506,8.464,3.506c3.305,0,6.298-1.339,8.464-3.506s3.506-5.159,3.506-8.464c0-3.306-1.34-6.298-3.505-8.464
					C104.33,12.196,101.338,10.856,98.031,10.855L98.031,10.855L98.031,10.855z"/>
			</g>
			<g>
				<path fill="#FFFFFF" d="M59.771,11.082c-1.286,0-2.328-1.042-2.328-2.328s1.043-2.328,2.328-2.328
					c4.59,0,8.748,1.861,11.756,4.869c3.009,3.008,4.871,7.166,4.871,11.756c0,4.591-1.861,8.748-4.869,11.757
					c-3.009,3.008-7.166,4.869-11.756,4.869c-4.591,0-8.748-1.861-11.757-4.869c-3.009-3.009-4.869-7.166-4.869-11.757
					c0-1.286,1.042-2.328,2.328-2.328c1.286,0,2.328,1.043,2.328,2.328c0,3.306,1.34,6.298,3.505,8.464
					c2.167,2.167,5.158,3.506,8.464,3.506s6.298-1.34,8.465-3.506c2.167-2.166,3.505-5.157,3.505-8.464
					c0-3.306-1.34-6.298-3.507-8.464C66.068,12.421,63.077,11.082,59.771,11.082L59.771,11.082z"/>
				<path fill="#FFFFFF" d="M59.771,35.021c1.286,0,2.328,1.042,2.328,2.328c0,1.287-1.043,2.328-2.328,2.328
					c-4.59,0-8.748-1.861-11.756-4.869c-3.009-3.009-4.87-7.166-4.87-11.756c0-4.591,1.861-8.748,4.87-11.756
					c3.008-3.008,7.166-4.869,11.756-4.869s8.748,1.861,11.756,4.869c3.009,3.009,4.871,7.166,4.871,11.756
					c0,1.286-1.043,2.328-2.328,2.328c-1.286,0-2.328-1.043-2.328-2.328c0-3.306-1.34-6.298-3.506-8.464
					c-2.167-2.166-5.158-3.505-8.465-3.505c-3.305,0-6.298,1.339-8.463,3.505c-2.167,2.167-3.505,5.159-3.505,8.464
					c0,3.306,1.34,6.298,3.505,8.464C53.474,33.682,56.465,35.021,59.771,35.021z"/>
			</g>
			<path fill="#FFFFFF" d="M7.263,6.2H35.03l0.204,0.006c1.745,0.105,3.128,1.554,3.128,3.326c0,1.46-0.608,1.963-1.57,2.839
				L25.176,22.938L12.034,34.896h23.948v0.011c1.313,0,2.38,1.065,2.38,2.38c0,1.313-1.065,2.379-2.38,2.379v0.012H8.215
				l-0.204-0.006c-1.746-0.106-3.127-1.555-3.127-3.326c0-1.46,0.607-1.963,1.57-2.839l11.616-10.567l13.142-11.957H7.263V10.97
				c-1.314,0-2.379-1.065-2.379-2.379c0-1.315,1.065-2.38,2.379-2.38V6.2z"/>
			<path fill="#FFFFFF" d="M151.176,12.258L139.96,22.463l0.398,0.363l11.616,10.567c0.868,0.79,1.97,1.579,1.97,2.868
				c0,1.312-1.063,2.373-2.373,2.373c-0.622,0-1.187-0.239-1.611-0.63l0,0l-0.004,0.018l-3.562-3.24l0,0l-9.987-9.086l-9.988,9.086
				l0,0l-3.562,3.24l-0.005-0.018l0,0c-0.423,0.392-0.989,0.63-1.611,0.63c-1.311,0-2.373-1.063-2.373-2.373
				c0-1.29,1.101-2.078,1.97-2.868l11.617-10.567l0.397-0.363l-11.216-10.205c-0.868-0.789-1.97-1.579-1.97-2.868
				c0-1.311,1.063-2.374,2.373-2.374c0.622,0,1.188,0.239,1.611,0.63l0,0l0.005-0.018l3.562,3.24l0,0l9.189,8.361l9.189-8.361l0,0
				l3.561-3.24l0.005,0.018l0,0c0.423-0.391,0.99-0.63,1.611-0.63c1.31,0,2.373,1.063,2.373,2.374
				C153.146,10.679,152.044,11.467,151.176,12.258z"/>
			<path fill="#FFFFFF" d="M168.17,55.824L168.17,55.824c0.393,0,0.714-0.321,0.714-0.714V5.369c0-0.392-0.321-0.713-0.714-0.713
				l0,0c-0.391,0-0.712,0.32-0.712,0.713V55.11C167.458,55.502,167.778,55.824,168.17,55.824z"/>
		</g>
		<path fill="#FFFFFF" d="M231.088,4.656c0.311,0,0.609,0.077,0.894,0.233c0.285,0.155,0.511,0.377,0.673,0.668
			c0.163,0.29,0.244,0.594,0.244,0.911c0,0.316-0.08,0.616-0.239,0.902c-0.161,0.285-0.384,0.508-0.669,0.669
			c-0.286,0.16-0.586,0.24-0.903,0.24c-0.316,0-0.616-0.081-0.902-0.24c-0.285-0.161-0.508-0.384-0.669-0.669
			c-0.16-0.286-0.24-0.586-0.24-0.902c0-0.317,0.082-0.62,0.244-0.911c0.163-0.29,0.388-0.513,0.673-0.668
			C230.479,4.733,230.778,4.656,231.088,4.656z M231.091,5.014c-0.25,0-0.488,0.062-0.717,0.187
			c-0.228,0.124-0.408,0.302-0.54,0.536c-0.132,0.232-0.198,0.477-0.198,0.731c0,0.254,0.064,0.496,0.193,0.725
			c0.127,0.23,0.307,0.409,0.538,0.539c0.231,0.129,0.471,0.193,0.724,0.193c0.253,0,0.495-0.064,0.724-0.193
			c0.23-0.129,0.41-0.309,0.54-0.539c0.127-0.229,0.193-0.471,0.193-0.725c0-0.255-0.067-0.499-0.198-0.731
			c-0.132-0.234-0.312-0.412-0.542-0.536C231.579,5.076,231.34,5.014,231.091,5.014L231.091,5.014z M230.271,7.436V5.518h0.389
			c0.364,0,0.569,0.001,0.614,0.006c0.129,0.01,0.229,0.036,0.301,0.077c0.07,0.039,0.131,0.102,0.179,0.184
			c0.048,0.083,0.072,0.174,0.072,0.275c0,0.138-0.045,0.257-0.135,0.355s-0.217,0.16-0.38,0.183
			c0.058,0.022,0.103,0.046,0.135,0.071c0.032,0.026,0.076,0.075,0.13,0.147c0.015,0.019,0.062,0.097,0.142,0.235l0.226,0.387
			h-0.485l-0.159-0.313c-0.108-0.209-0.196-0.341-0.267-0.396c-0.07-0.054-0.159-0.081-0.268-0.081h-0.102v0.79h-0.392V7.436z
			 M230.662,6.341h0.158c0.224,0,0.364-0.008,0.419-0.026c0.053-0.017,0.097-0.046,0.127-0.09c0.033-0.042,0.047-0.091,0.047-0.146
			c0-0.053-0.016-0.1-0.047-0.142c-0.03-0.041-0.074-0.071-0.131-0.089c-0.056-0.018-0.195-0.026-0.416-0.026h-0.157V6.341
			L230.662,6.341L230.662,6.341z"/>
	</g>
</g>
</svg>
